<?xml version="1.0" encoding="UTF-8"?>
<svg xmlns="http://www.w3.org/2000/svg" viewBox="0 0 3000 3000">
  <defs>
    <style>
      .cls-1 {
        fill: #947f64;
      }

      .cls-2 {
        fill: #ffeedc;
      }

      .cls-3 {
        fill: #4b594c;
      }
    </style>
  </defs>
  <g id="BG">
    <rect class="cls-2" x="-10" y="-10" width="3020" height="3020"/>
  </g>
  <g id="Your_design" data-name="Your design">
    <g>
      <g>
        <path class="cls-3" d="M1245.09,1532.09c0-156.49,65.5-295.3,246.38-295.3,97.59,0,176.68,47.11,207.81,116.09l-17.66,16.83c-25.25-62.26-105.17-97.6-159.86-97.6-104.32,0-189.17,103.49-189.17,259.98s59.61,265.01,181.6,265.01c37.01,0,76.55-15.98,113.58-44.59v-109.45h-48.82v-36.18h127.06v136.37c-43.74,53.01-127.88,89.18-203.6,89.18-154.8,0-257.31-109.38-257.31-300.35Z"/>
        <rect class="cls-3" x="1578.95" y="1606.88" width="48.82" height="36.18"/>
        <rect class="cls-3" x="1685.48" y="1606.88" width="69.36" height="36.18"/>
      </g>
      <path class="cls-1" d="M1905.04,1995.22h-810.08v-611.12c0-209.16,170.16-379.32,379.34-379.32h51.41c209.17,0,379.34,170.16,379.34,379.32v611.12ZM1131.43,1958.75h737.15v-574.65c0-189.05-153.81-342.86-342.87-342.86h-51.41c-189.06,0-342.87,153.81-342.87,342.86v574.65Z"/>
      <g>
        <polygon class="cls-3" points="1706.02 1594.82 1693.86 1594.82 1693.86 1484.37 1639.86 1484.37 1639.86 1594.82 1627.71 1594.82 1627.71 1472.21 1706.02 1472.21 1706.02 1594.82"/>
        <polygon class="cls-3" points="1675.83 1477.53 1671.41 1456.25 1662.3 1456.25 1657.88 1477.53 1645.99 1475.06 1652.4 1444.09 1681.31 1444.09 1687.72 1475.06 1675.83 1477.53"/>
        <polygon class="cls-3" points="1670.62 1452.79 1663.09 1452.79 1663.09 1383.8 1670.62 1379.2 1670.62 1452.79"/>
        <rect class="cls-3" x="1633.78" y="1568.38" width="33.07" height="9.12"/>
        <rect class="cls-3" x="1633.78" y="1535.7" width="33.07" height="9.12"/>
        <rect class="cls-3" x="1633.78" y="1505.09" width="33.07" height="9.12"/>
      </g>
    </g>
  </g>
</svg>