<?xml version="1.0" encoding="UTF-8"?>
<svg xmlns="http://www.w3.org/2000/svg" viewBox="0 0 3000 3000">
  <defs>
    <style>
      .cls-1 {
        fill: #947f64;
      }

      .cls-2 {
        fill: #ffeedc;
      }
    </style>
  </defs>
  <g id="BG">
    <rect class="cls-1" x="-10" y="-10" width="3020" height="3020"/>
  </g>
  <g id="Your_design" data-name="Your design">
    <g>
      <g>
        <path class="cls-2" d="M881.9,1805.92c0-68.37,38.97-129.03,118-129.03,42.64,0,77.2,20.59,90.8,50.73l-7.72,7.35c-11.03-27.2-45.95-42.64-69.84-42.64-45.59,0-93,45.22-93,113.59s36.39,115.8,89.7,115.8c16.17,0,33.45-6.99,49.63-19.48v-96.32h-37.13v-15.81h71.32v108.08c-19.11,23.16-55.87,38.97-88.96,38.97-67.64,0-122.78-47.79-122.78-131.24Z"/>
        <path class="cls-2" d="M1166.42,1931.65h-34.19v-251.08h85.29c54.41,0,88.59,34.92,88.96,70.95v1.1c0,28.67-15.07,59.19-66.9,71.31l76.1,107.71h-41.54l-71.32-102.56c-5.51.37-11.03.37-17.27.37-6.62,0-12.87,0-19.11.37v101.83ZM1166.42,1814.01c6.62,0,12.86-.37,19.11-.37,65.06,0,83.08-30.51,83.08-59.19s-25.74-58.45-68.01-58.45h-34.19v118Z"/>
        <path class="cls-2" d="M1344.33,1931.65h-17.65l83.08-251.08h41.17l82.71,251.08h-36.02l-21.32-64.7h-110.65l-21.32,64.7ZM1370.79,1851.51h100.35l-49.99-151.45-50.36,151.45Z"/>
        <path class="cls-2" d="M1694.28,1680.57h19.12l-84.55,146.31v104.77h-34.55v-98.15l-82.71-152.56v-.37h40.81l68.37,126.46,73.52-126.46Z"/>
        <path class="cls-2" d="M1930.27,1885.7c-14.34,24.99-41.54,51.47-83.45,51.47-83.45,0-124.25-61.76-124.25-131.24s40.43-129.03,119.47-129.03c40.81,0,68.75,15.81,86.39,51.1l-7.72,7.35c-5.14-12.13-18.38-41.54-65.8-42.64h-2.2c-52.2,0-91.9,53.3-91.9,113.22s28.67,115.8,91.17,115.8c31.61,0,55.88-16.54,74.99-45.22l3.31,9.19Z"/>
        <path class="cls-2" d="M1965.17,1931.65v-251.08h152.92v15.44h-118.37v94.11h99.25v15.81h-99.25v109.91h118.37v15.81h-152.92Z"/>
      </g>
      <g>
        <path class="cls-2" d="M1328.59,1282.9c0-105.23,44.04-198.57,165.67-198.57,65.62,0,118.8,31.68,139.73,78.06l-11.88,11.32c-16.98-41.87-70.72-65.63-107.49-65.63-70.15,0-127.2,69.59-127.2,174.81s40.08,178.2,122.11,178.2c24.89,0,51.48-10.74,76.37-29.98v-73.6h-32.83v-24.33h85.44v91.7c-29.41,35.65-85.99,59.97-136.91,59.97-104.09,0-173.02-73.55-173.02-201.96Z"/>
        <rect class="cls-2" x="1553.08" y="1333.19" width="32.83" height="24.33"/>
        <rect class="cls-2" x="1624.72" y="1333.19" width="46.64" height="24.33"/>
      </g>
      <path class="cls-2" d="M1772.35,1594.31h-544.71v-410.93c0-140.64,114.42-255.06,255.07-255.06h34.57c140.65,0,255.07,114.42,255.07,255.06v410.93ZM1252.16,1569.79h495.67v-386.41c0-127.12-103.42-230.54-230.55-230.54h-34.57c-127.13,0-230.55,103.42-230.55,230.54v386.41Z"/>
      <g>
        <polygon class="cls-2" points="1638.52 1325.07 1630.35 1325.07 1630.35 1250.81 1594.04 1250.81 1594.04 1325.07 1585.87 1325.07 1585.87 1242.63 1638.52 1242.63 1638.52 1325.07"/>
        <polygon class="cls-2" points="1618.23 1246.21 1615.26 1231.9 1609.13 1231.9 1606.16 1246.21 1598.16 1244.55 1602.47 1223.72 1621.91 1223.72 1626.22 1244.55 1618.23 1246.21"/>
        <polygon class="cls-2" points="1614.72 1229.57 1609.66 1229.57 1609.66 1183.18 1614.72 1180.09 1614.72 1229.57"/>
        <rect class="cls-2" x="1589.95" y="1307.3" width="22.24" height="6.13"/>
        <rect class="cls-2" x="1589.95" y="1285.32" width="22.24" height="6.13"/>
        <rect class="cls-2" x="1589.95" y="1264.74" width="22.24" height="6.13"/>
      </g>
      <g>
        <path class="cls-2" d="M1010.39,2010.52v59.97h-8.48v-34.24c.03-1.85.06-3.83.09-5.95.03-2.13.06-4.09.09-5.91.03-1.81.05-3.32.07-4.5.02-1.19.02-2.99.02-5.42-.58,2.02-1.39,4.54-2.41,7.57-1.02,3.03-2.08,6.02-3.18,8.97-1.1,2.96-2.38,6.4-3.84,10.32l-11.32,29.15h-8.29l-11.31-29.15c-1.7-4.45-3.46-9.07-5.29-13.87-1.82-4.8-3.3-9.13-4.41-12.99,0,.41-.03.72-.09.92,0,.26.03.71.09,1.34.06.63.11,1.14.15,1.51.05.38.08.81.11,1.28.44,3.72.66,9.5.66,17.34v33.63h-8.56v-59.97h14.04l11.84,30.12c1.76,4.39,3.2,8.09,4.32,11.1,1.13,3.02,2.05,6.03,2.78,9.05,1.43-5.01,3.83-11.78,7.2-20.33l11.4-29.94h14.31Z"/>
        <path class="cls-2" d="M1061.01,2010.52v7.37h-24.8v17.61h23v7.38h-23v20.32h25.5v7.29h-34.07v-59.97h33.37Z"/>
        <path class="cls-2" d="M1076.8,2010.52h12.43c4.24,0,7.6.15,10.05.44,4.01.38,7.74,1.41,11.19,3.1,3.45,1.68,6.37,3.83,8.76,6.43,2.38,2.61,4.23,5.61,5.53,9.02,1.3,3.41,1.95,7.15,1.95,11.22,0,3.25-.47,6.37-1.43,9.35-.95,2.99-2.29,5.67-4.02,8.06-1.73,2.38-3.83,4.46-6.32,6.24-2.49,1.77-5.25,3.15-8.3,4.15-1.52.53-3.05.92-4.57,1.19-1.52.26-3.2.46-5.03.59-1.83.13-4.03.2-6.6.2h-13.66v-59.97ZM1085.37,2017.89v45.31h4.39c3.95,0,6.95-.15,9-.44,2.05-.3,4.11-.87,6.19-1.72,2.61-1.14,4.85-2.72,6.74-4.74,1.89-2.02,3.34-4.39,4.34-7.11,1.01-2.72,1.52-5.64,1.52-8.74,0-2.37-.34-4.68-1.01-6.94-.67-2.26-1.64-4.3-2.9-6.14-1.26-1.85-2.77-3.46-4.52-4.83-1.76-1.37-3.69-2.42-5.8-3.12-1.35-.53-3.06-.92-5.16-1.17-2.09-.24-4.87-.37-8.32-.37h-4.47Z"/>
        <path class="cls-2" d="M1149.64,2010.52v59.97h-8.56v-59.97h8.56Z"/>
        <path class="cls-2" d="M1209.21,2012.76l-.71,8.21c-2.25-1.32-4.31-2.23-6.19-2.74-1.87-.51-3.98-.77-6.32-.77-3.31,0-6.35.53-9.11,1.6-2.77,1.07-5.17,2.61-7.22,4.63-2.05,2.02-3.63,4.41-4.74,7.18-1.11,2.76-1.66,5.82-1.66,9.15,0,4.39,1,8.36,3.01,11.92,2,3.56,4.77,6.34,8.3,8.34,3.53,2.01,7.47,3.01,11.83,3.01,4.07,0,8.34-.89,12.82-2.68l.66,8.25c-2.34.76-4.47,1.29-6.39,1.6-1.92.31-4.19.46-6.83.46-6.29,0-11.9-1.22-16.83-3.64-4.94-2.43-8.79-5.96-11.57-10.6-2.78-4.64-4.17-10.14-4.17-16.49,0-5.8,1.32-10.98,3.97-15.54,2.65-4.57,6.38-8.12,11.2-10.67,4.81-2.55,10.25-3.82,16.3-3.82,5.24,0,9.79.87,13.66,2.59Z"/>
        <path class="cls-2" d="M1248.82,2010.52l25.97,59.97h-9.65l-6.27-15.19h-29.13l-6.18,15.19h-9.26l25.53-59.97h8.99ZM1255.89,2048.01l-6.89-16.72c-1.37-3.19-2.4-5.7-3.07-7.53-.67-1.83-1.27-3.78-1.8-5.86-.44,1.61-.96,3.21-1.56,4.81-.6,1.59-1.76,4.52-3.49,8.76l-6.63,16.55h23.43Z"/>
        <path class="cls-2" d="M1293.32,2010.52v52.68h25.33v7.29h-33.9v-59.97h8.56Z"/>
        <path class="cls-2" d="M1383.77,2010.52l25.97,59.97h-9.65l-6.27-15.19h-29.13l-6.18,15.19h-9.26l25.53-59.97h8.99ZM1390.83,2048.01l-6.89-16.72c-1.37-3.19-2.4-5.7-3.07-7.53-.67-1.83-1.27-3.78-1.8-5.86-.44,1.61-.96,3.21-1.56,4.81-.6,1.59-1.76,4.52-3.49,8.76l-6.63,16.55h23.43Z"/>
        <path class="cls-2" d="M1453.07,2010.52v7.37h-24.8v17.61h23v7.38h-23v20.32h25.5v7.29h-34.07v-59.97h33.37Z"/>
        <path class="cls-2" d="M1497.01,2011.62l-1.05,7.55c-4.27-1.64-8.02-2.46-11.24-2.46-2.17,0-4.06.34-5.68,1.03-1.63.69-2.88,1.65-3.78,2.9-.89,1.24-1.34,2.7-1.34,4.37,0,2.61.92,4.6,2.74,5.97,1.83,1.37,5.05,3.26,9.66,5.64,4.61,2.38,8.07,4.8,10.38,7.24,2.31,2.45,3.47,5.69,3.47,9.73,0,3.51-.85,6.66-2.55,9.44-1.7,2.78-4.11,4.92-7.22,6.41-3.12,1.49-6.7,2.24-10.74,2.24-4.77,0-9.32-.79-13.65-2.37l.88-8.08c4.42,2.11,8.34,3.16,11.77,3.16,2.43,0,4.59-.41,6.48-1.23s3.33-2,4.34-3.54c1.01-1.53,1.51-3.34,1.51-5.42,0-2.98-1.01-5.24-3.03-6.78-2.02-1.53-5.23-3.36-9.62-5.46-4.39-2.11-7.71-4.3-9.96-6.56-2.26-2.27-3.38-5.46-3.38-9.59,0-3.22.78-6.07,2.35-8.54,1.57-2.47,3.79-4.4,6.67-5.78,2.88-1.37,6.17-2.06,9.86-2.06,4.66,0,9.03.73,13.13,2.2Z"/>
        <path class="cls-2" d="M1552.59,2010.52v7.37h-18.79v52.6h-8.56v-52.6h-19.14v-7.37h46.49Z"/>
        <path class="cls-2" d="M1608.78,2010.52v59.97h-8.56v-27.52h-29.02v27.52h-8.56v-59.97h8.56v25.15h29.02v-25.15h8.56Z"/>
        <path class="cls-2" d="M1659.39,2010.52v7.37h-24.8v17.61h23v7.38h-23v20.32h25.5v7.29h-34.07v-59.97h33.37Z"/>
        <path class="cls-2" d="M1714.49,2010.52v7.37h-18.79v52.6h-8.56v-52.6h-19.14v-7.37h46.49Z"/>
        <path class="cls-2" d="M1733.63,2010.52v59.97h-8.56v-59.97h8.56Z"/>
        <path class="cls-2" d="M1793.2,2012.76l-.71,8.21c-2.25-1.32-4.31-2.23-6.19-2.74-1.87-.51-3.98-.77-6.32-.77-3.31,0-6.35.53-9.11,1.6-2.77,1.07-5.17,2.61-7.22,4.63-2.05,2.02-3.63,4.41-4.74,7.18-1.11,2.76-1.66,5.82-1.66,9.15,0,4.39,1,8.36,3.01,11.92,2,3.56,4.77,6.34,8.3,8.34,3.53,2.01,7.47,3.01,11.83,3.01,4.07,0,8.34-.89,12.82-2.68l.66,8.25c-2.34.76-4.47,1.29-6.39,1.6-1.92.31-4.19.46-6.83.46-6.29,0-11.9-1.22-16.83-3.64-4.94-2.43-8.79-5.96-11.57-10.6-2.78-4.64-4.17-10.14-4.17-16.49,0-5.8,1.32-10.98,3.97-15.54,2.65-4.57,6.38-8.12,11.2-10.67,4.81-2.55,10.25-3.82,16.3-3.82,5.24,0,9.79.87,13.66,2.59Z"/>
        <path class="cls-2" d="M1874.02,2012.76l-.71,8.21c-2.25-1.32-4.31-2.23-6.19-2.74-1.87-.51-3.98-.77-6.32-.77-3.31,0-6.35.53-9.11,1.6-2.77,1.07-5.17,2.61-7.22,4.63-2.05,2.02-3.63,4.41-4.74,7.18-1.11,2.76-1.66,5.82-1.66,9.15,0,4.39,1,8.36,3.01,11.92,2,3.56,4.77,6.34,8.3,8.34,3.53,2.01,7.47,3.01,11.83,3.01,4.07,0,8.34-.89,12.82-2.68l.66,8.25c-2.34.76-4.47,1.29-6.39,1.6-1.92.31-4.19.46-6.83.46-6.29,0-11.9-1.22-16.83-3.64-4.94-2.43-8.79-5.96-11.57-10.6-2.78-4.64-4.17-10.14-4.17-16.49,0-5.8,1.32-10.98,3.97-15.54,2.65-4.57,6.38-8.12,11.2-10.67,4.81-2.55,10.25-3.82,16.3-3.82,5.24,0,9.79.87,13.66,2.59Z"/>
        <path class="cls-2" d="M1894.92,2010.52v52.68h25.33v7.29h-33.9v-59.97h8.56Z"/>
        <path class="cls-2" d="M1940.39,2010.52v59.97h-8.56v-59.97h8.56Z"/>
        <path class="cls-2" d="M2006.2,2010.52v59.97h-11.06l-18.96-32.53c-3.28-5.79-5.54-9.9-6.78-12.31-1.24-2.42-2.35-5.17-3.31-8.27.5,6.58.75,14.14.75,22.65v30.47h-8.56v-59.97h11.68l20.41,35.34c4.13,7.17,6.9,12.89,8.3,17.16-.38-4.01-.6-6.7-.66-8.08-.06-2.34-.11-4.65-.16-6.94-.04-2.28-.07-3.71-.09-4.3s-.02-2.04-.02-4.35v-28.84h8.47Z"/>
        <path class="cls-2" d="M2032.54,2010.52v59.97h-8.56v-59.97h8.56Z"/>
        <path class="cls-2" d="M2092.11,2012.76l-.71,8.21c-2.25-1.32-4.31-2.23-6.19-2.74-1.87-.51-3.98-.77-6.32-.77-3.31,0-6.35.53-9.11,1.6-2.77,1.07-5.17,2.61-7.22,4.63-2.05,2.02-3.63,4.41-4.74,7.18-1.11,2.76-1.66,5.82-1.66,9.15,0,4.39,1,8.36,3.01,11.92,2,3.56,4.77,6.34,8.3,8.34,3.53,2.01,7.47,3.01,11.83,3.01,4.07,0,8.34-.89,12.82-2.68l.66,8.25c-2.34.76-4.47,1.29-6.39,1.6-1.92.31-4.19.46-6.83.46-6.29,0-11.9-1.22-16.83-3.64-4.94-2.43-8.79-5.96-11.57-10.6-2.78-4.64-4.17-10.14-4.17-16.49,0-5.8,1.32-10.98,3.97-15.54,2.65-4.57,6.38-8.12,11.2-10.67,4.81-2.55,10.25-3.82,16.3-3.82,5.24,0,9.79.87,13.66,2.59Z"/>
      </g>
    </g>
  </g>
</svg>