<?xml version="1.0" encoding="UTF-8"?>
<svg xmlns="http://www.w3.org/2000/svg" viewBox="0 0 3000 3000">
  <defs>
    <style>
      .cls-1 {
        fill: #947f64;
      }

      .cls-2 {
        fill: #ffeedc;
      }

      .cls-3 {
        fill: #4b594c;
      }
    </style>
  </defs>
  <g id="BG">
    <rect class="cls-2" x="-10" y="-10" width="3020" height="3020"/>
  </g>
  <g id="Your_design" data-name="Your design">
    <g>
      <g>
        <path class="cls-3" d="M646.51,1405.6c0-94.41,53.81-178.17,162.94-178.17,58.88,0,106.6,28.43,125.38,70.05l-10.66,10.15c-15.23-37.56-63.45-58.88-96.44-58.88-62.95,0-128.42,62.44-128.42,156.85s50.25,159.9,123.86,159.9c22.33,0,46.19-9.65,68.52-26.9v-133h-51.27v-21.83h98.48v149.24c-26.39,31.98-77.15,53.81-122.84,53.81-93.4,0-169.54-65.99-169.54-181.22Z"/>
        <path class="cls-3" d="M1039.38,1579.21h-47.21v-346.7h117.77c75.13,0,122.33,48.22,122.84,97.97v1.52c0,39.59-20.81,81.73-92.39,98.47l105.08,148.73h-57.36l-98.48-141.62c-7.61.51-15.23.51-23.85.51-9.14,0-17.77,0-26.39.51v140.61ZM1039.38,1416.77c9.13,0,17.76-.51,26.39-.51,89.84,0,114.72-42.13,114.72-81.73s-35.54-80.71-93.91-80.71h-47.21v162.94Z"/>
        <path class="cls-3" d="M1285.04,1579.21h-24.37l114.72-346.7h56.85l114.21,346.7h-49.74l-29.44-89.34h-152.79l-29.44,89.34ZM1321.59,1468.54h138.57l-69.03-209.13-69.54,209.13Z"/>
        <path class="cls-3" d="M1768.26,1232.51h26.4l-116.75,202.03v144.67h-47.71v-135.53l-114.21-210.66v-.51h56.35l94.41,174.62,101.52-174.62Z"/>
        <path class="cls-3" d="M2094.14,1515.76c-19.8,34.51-57.36,71.07-115.23,71.07-115.23,0-171.57-85.28-171.57-181.22s55.83-178.17,164.97-178.17c56.35,0,94.93,21.83,119.29,70.56l-10.66,10.15c-7.1-16.75-25.38-57.36-90.86-58.88h-3.04c-72.08,0-126.91,73.6-126.91,156.34s39.6,159.9,125.89,159.9c43.65,0,77.16-22.84,103.55-62.44l4.57,12.69Z"/>
        <path class="cls-3" d="M2142.33,1579.21v-346.7h211.16v21.32h-163.44v129.95h137.05v21.83h-137.05v151.78h163.44v21.83h-211.16Z"/>
      </g>
      <g>
        <path class="cls-1" d="M823.92,1688.12v82.81h-11.7v-47.28c.04-2.55.09-5.28.12-8.21.04-2.94.09-5.65.12-8.15.04-2.51.07-4.58.09-6.21.02-1.64.03-4.13.03-7.49-.8,2.79-1.92,6.27-3.33,10.46-1.41,4.18-2.88,8.31-4.39,12.39-1.52,4.09-3.29,8.83-5.3,14.25l-15.63,40.25h-11.45l-15.62-40.25c-2.35-6.14-4.78-12.53-7.3-19.16-2.52-6.62-4.55-12.61-6.09-17.94,0,.57-.04.99-.12,1.27,0,.37.04.98.12,1.85.08.87.15,1.57.21,2.09.06.53.11,1.12.16,1.76.6,5.13.91,13.12.91,23.95v46.43h-11.83v-82.81h19.39l16.35,41.59c2.43,6.06,4.42,11.17,5.97,15.33,1.55,4.17,2.83,8.33,3.84,12.49,1.98-6.92,5.29-16.27,9.94-28.07l15.74-41.34h19.76Z"/>
        <path class="cls-1" d="M893.82,1688.12v10.18h-34.25v24.31h31.76v10.19h-31.76v28.06h35.21v10.07h-47.04v-82.81h46.07Z"/>
        <path class="cls-1" d="M915.63,1688.12h17.16c5.86,0,10.49.2,13.88.61,5.53.52,10.69,1.95,15.46,4.27,4.77,2.32,8.8,5.28,12.1,8.88,3.29,3.6,5.83,7.75,7.64,12.46,1.8,4.71,2.69,9.87,2.69,15.49,0,4.48-.65,8.79-1.97,12.91-1.31,4.12-3.16,7.83-5.55,11.12-2.38,3.29-5.29,6.16-8.73,8.61-3.44,2.44-7.25,4.35-11.45,5.73-2.1.73-4.21,1.27-6.31,1.64-2.1.36-4.42.63-6.94.82-2.53.18-5.56.27-9.12.27h-18.86v-82.81ZM927.46,1698.3v62.56h6.06c5.46,0,9.6-.2,12.43-.6,2.83-.41,5.68-1.2,8.55-2.37,3.6-1.57,6.7-3.76,9.31-6.54,2.61-2.79,4.61-6.06,6-9.82,1.4-3.76,2.1-7.78,2.1-12.06,0-3.27-.47-6.46-1.4-9.58-.93-3.11-2.26-5.94-4-8.48-1.74-2.55-3.82-4.77-6.24-6.67-2.43-1.9-5.1-3.34-8-4.3-1.86-.73-4.23-1.27-7.12-1.61-2.89-.34-6.72-.52-11.49-.52h-6.18Z"/>
        <path class="cls-1" d="M1016.2,1688.12v82.81h-11.82v-82.81h11.82Z"/>
        <path class="cls-1" d="M1098.46,1691.21l-.97,11.33c-3.11-1.82-5.96-3.08-8.55-3.79-2.58-.71-5.49-1.06-8.73-1.06-4.57,0-8.76.74-12.58,2.21-3.82,1.47-7.14,3.61-9.97,6.39-2.83,2.79-5.01,6.09-6.55,9.92-1.53,3.82-2.3,8.03-2.3,12.64,0,6.06,1.38,11.55,4.15,16.46,2.76,4.91,6.59,8.76,11.45,11.52,4.87,2.77,10.32,4.15,16.34,4.15,5.62,0,11.52-1.23,17.7-3.69l.91,11.4c-3.24,1.05-6.18,1.78-8.82,2.21-2.65.42-5.79.64-9.43.64-8.69,0-16.44-1.68-23.24-5.03-6.82-3.36-12.13-8.23-15.98-14.64-3.84-6.41-5.76-14-5.76-22.77,0-8,1.83-15.16,5.48-21.46,3.66-6.31,8.81-11.22,15.46-14.73,6.64-3.52,14.15-5.28,22.51-5.28,7.24,0,13.52,1.2,18.86,3.58Z"/>
        <path class="cls-1" d="M1153.16,1688.12l35.87,82.81h-13.33l-8.66-20.98h-40.22l-8.54,20.98h-12.79l35.26-82.81h12.41ZM1162.92,1739.89l-9.51-23.09c-1.9-4.4-3.31-7.87-4.24-10.39-.93-2.53-1.75-5.23-2.48-8.1-.61,2.23-1.32,4.44-2.15,6.64-.83,2.2-2.43,6.24-4.82,12.09l-9.15,22.85h32.35Z"/>
        <path class="cls-1" d="M1214.6,1688.12v72.74h34.98v10.07h-46.8v-82.81h11.83Z"/>
        <path class="cls-1" d="M1339.5,1688.12l35.87,82.81h-13.33l-8.66-20.98h-40.22l-8.54,20.98h-12.79l35.26-82.81h12.41ZM1349.26,1739.89l-9.51-23.09c-1.9-4.4-3.31-7.87-4.24-10.39-.93-2.53-1.75-5.23-2.48-8.1-.61,2.23-1.32,4.44-2.15,6.64-.83,2.2-2.43,6.24-4.82,12.09l-9.15,22.85h32.35Z"/>
        <path class="cls-1" d="M1435.2,1688.12v10.18h-34.25v24.31h31.76v10.19h-31.76v28.06h35.21v10.07h-47.04v-82.81h46.07Z"/>
        <path class="cls-1" d="M1495.87,1689.64l-1.45,10.42c-5.9-2.26-11.07-3.39-15.52-3.39-2.99,0-5.61.47-7.85,1.42-2.25.95-3.98,2.28-5.22,4-1.23,1.72-1.85,3.72-1.85,6.03,0,3.6,1.27,6.35,3.79,8.25,2.53,1.9,6.97,4.5,13.34,7.79,6.36,3.29,11.15,6.63,14.34,10,3.19,3.38,4.79,7.85,4.79,13.43,0,4.85-1.17,9.19-3.52,13.03-2.35,3.84-5.67,6.79-9.97,8.86-4.3,2.06-9.25,3.09-14.83,3.09-6.59,0-12.87-1.1-18.85-3.28l1.21-11.15c6.11,2.91,11.52,4.37,16.25,4.37,3.35,0,6.34-.57,8.94-1.7s4.6-2.76,6-4.88c1.4-2.12,2.09-4.62,2.09-7.49,0-4.12-1.4-7.24-4.18-9.36-2.79-2.12-7.22-4.64-13.28-7.55-6.06-2.91-10.65-5.93-13.76-9.06-3.11-3.13-4.67-7.55-4.67-13.24,0-4.45,1.08-8.38,3.24-11.79,2.16-3.41,5.23-6.07,9.21-7.97,3.98-1.9,8.52-2.85,13.61-2.85,6.43,0,12.47,1.01,18.13,3.04Z"/>
        <path class="cls-1" d="M1572.62,1688.12v10.18h-25.94v72.63h-11.82v-72.63h-26.43v-10.18h64.19Z"/>
        <path class="cls-1" d="M1650.21,1688.12v82.81h-11.82v-38.01h-40.07v38.01h-11.83v-82.81h11.83v34.73h40.07v-34.73h11.82Z"/>
        <path class="cls-1" d="M1720.1,1688.12v10.18h-34.25v24.31h31.76v10.19h-31.76v28.06h35.21v10.07h-47.04v-82.81h46.07Z"/>
        <path class="cls-1" d="M1796.18,1688.12v10.18h-25.94v72.63h-11.82v-72.63h-26.43v-10.18h64.19Z"/>
        <path class="cls-1" d="M1822.61,1688.12v82.81h-11.82v-82.81h11.82Z"/>
        <path class="cls-1" d="M1904.86,1691.21l-.97,11.33c-3.11-1.82-5.96-3.08-8.55-3.79-2.58-.71-5.49-1.06-8.73-1.06-4.57,0-8.76.74-12.58,2.21-3.82,1.47-7.14,3.61-9.97,6.39-2.83,2.79-5.01,6.09-6.55,9.92-1.53,3.82-2.3,8.03-2.3,12.64,0,6.06,1.38,11.55,4.15,16.46,2.76,4.91,6.59,8.76,11.45,11.52,4.87,2.77,10.32,4.15,16.34,4.15,5.62,0,11.52-1.23,17.7-3.69l.91,11.4c-3.24,1.05-6.18,1.78-8.82,2.21-2.65.42-5.79.64-9.43.64-8.69,0-16.44-1.68-23.24-5.03-6.82-3.36-12.13-8.23-15.98-14.64-3.84-6.41-5.76-14-5.76-22.77,0-8,1.83-15.16,5.48-21.46,3.66-6.31,8.81-11.22,15.46-14.73,6.64-3.52,14.15-5.28,22.51-5.28,7.24,0,13.52,1.2,18.86,3.58Z"/>
        <path class="cls-1" d="M2016.46,1691.21l-.97,11.33c-3.11-1.82-5.96-3.08-8.55-3.79-2.58-.71-5.49-1.06-8.73-1.06-4.57,0-8.76.74-12.58,2.21-3.82,1.47-7.14,3.61-9.97,6.39-2.83,2.79-5.01,6.09-6.55,9.92-1.53,3.82-2.3,8.03-2.3,12.64,0,6.06,1.38,11.55,4.15,16.46,2.76,4.91,6.59,8.76,11.45,11.52,4.87,2.77,10.32,4.15,16.34,4.15,5.62,0,11.52-1.23,17.7-3.69l.91,11.4c-3.24,1.05-6.18,1.78-8.82,2.21-2.65.42-5.79.64-9.43.64-8.69,0-16.44-1.68-23.24-5.03-6.82-3.36-12.13-8.23-15.98-14.64-3.84-6.41-5.76-14-5.76-22.77,0-8,1.83-15.16,5.48-21.46,3.66-6.31,8.81-11.22,15.46-14.73,6.64-3.52,14.15-5.28,22.51-5.28,7.24,0,13.52,1.2,18.86,3.58Z"/>
        <path class="cls-1" d="M2045.32,1688.12v72.74h34.98v10.07h-46.8v-82.81h11.83Z"/>
        <path class="cls-1" d="M2108.12,1688.12v82.81h-11.82v-82.81h11.82Z"/>
        <path class="cls-1" d="M2198.98,1688.12v82.81h-15.28l-26.19-44.92c-4.52-8-7.65-13.67-9.36-17-1.72-3.34-3.24-7.14-4.57-11.43.69,9.09,1.03,19.52,1.03,31.28v42.07h-11.83v-82.81h16.13l28.18,48.8c5.7,9.9,9.52,17.8,11.46,23.7-.53-5.53-.83-9.25-.91-11.15-.09-3.23-.15-6.42-.21-9.58-.06-3.15-.1-5.13-.12-5.93s-.03-2.81-.03-6.01v-39.82h11.7Z"/>
        <path class="cls-1" d="M2235.35,1688.12v82.81h-11.82v-82.81h11.82Z"/>
        <path class="cls-1" d="M2317.61,1691.21l-.97,11.33c-3.11-1.82-5.96-3.08-8.55-3.79-2.58-.71-5.49-1.06-8.73-1.06-4.57,0-8.76.74-12.58,2.21-3.82,1.47-7.14,3.61-9.97,6.39-2.83,2.79-5.01,6.09-6.55,9.92-1.53,3.82-2.3,8.03-2.3,12.64,0,6.06,1.38,11.55,4.15,16.46,2.76,4.91,6.59,8.76,11.45,11.52,4.87,2.77,10.32,4.15,16.34,4.15,5.62,0,11.52-1.23,17.7-3.69l.91,11.4c-3.24,1.05-6.18,1.78-8.82,2.21-2.65.42-5.79.64-9.43.64-8.69,0-16.44-1.68-23.24-5.03-6.82-3.36-12.13-8.23-15.98-14.64-3.84-6.41-5.76-14-5.76-22.77,0-8,1.83-15.16,5.48-21.46,3.66-6.31,8.81-11.22,15.46-14.73,6.64-3.52,14.15-5.28,22.51-5.28,7.24,0,13.52,1.2,18.86,3.58Z"/>
      </g>
    </g>
  </g>
</svg>