<svg width="640" height="320" viewBox="0 0 640 320" fill="none" xmlns="http://www.w3.org/2000/svg">
  <!-- navy sparkle stars (concave four-point) -->
  <g fill="#1C2A3A">
    <g transform="translate(88 150) scale(2.4)">
      <path d="M12 0 C 13 9 15 11 24 12 C 15 13 13 15 12 24 C 11 15 9 13 0 12 C 9 11 11 9 12 0 Z"/>
    </g>
    <g transform="translate(498 92) scale(2)">
      <path d="M12 0 C 13 9 15 11 24 12 C 15 13 13 15 12 24 C 11 15 9 13 0 12 C 9 11 11 9 12 0 Z"/>
    </g>
  </g>

  <!-- "Grayce" script wordmark -->
  <text
    x="320"
    y="170"
    font-family="Georgia, 'Times New Roman', serif"
    font-style="italic"
    font-weight="600"
    font-size="148"
    fill="#7C8E6E"
    text-anchor="middle"
    letter-spacing="-4"
  >Grayce</text>

  <!-- thin gold rule -->
  <line x1="180" y1="210" x2="460" y2="210" stroke="#C9A14A" stroke-width="1.5"/>

  <!-- kerned caps subtitle -->
  <text
    x="320"
    y="248"
    font-family="'Inter', system-ui, sans-serif"
    font-weight="500"
    font-size="22"
    fill="#2A3528"
    text-anchor="middle"
    letter-spacing="8"
  >MEDICAL AESTHETICS</text>
</svg>
