<svg width="512" height="512" viewBox="0 0 512 512" fill="none" xmlns="http://www.w3.org/2000/svg">
  <rect width="512" height="512" rx="96" fill="#FAF6EF"/>
  <text x="256" y="330" font-family="Georgia, serif" font-size="320" font-style="italic" font-weight="600" fill="#7C8E6E" text-anchor="middle">G</text>
  <g fill="#1C2A3A">
    <g transform="translate(72 72) scale(2.4)">
      <path d="M12 0 C 13 9 15 11 24 12 C 15 13 13 15 12 24 C 11 15 9 13 0 12 C 9 11 11 9 12 0 Z"/>
    </g>
    <g transform="translate(384 360) scale(2.4)">
      <path d="M12 0 C 13 9 15 11 24 12 C 15 13 13 15 12 24 C 11 15 9 13 0 12 C 9 11 11 9 12 0 Z"/>
    </g>
  </g>
</svg>
